<svg width="43" height="32" viewBox="0 0 43 32" fill="none" xmlns="http://www.w3.org/2000/svg">
<path d="M0 3.761V2.66667C0 1.95942 0.283147 1.28115 0.787151 0.781049C1.29115 0.280952 1.97473 0 2.6875 0L40.3125 0C41.0253 0 41.7088 0.280952 42.2128 0.781049C42.7169 1.28115 43 1.95942 43 2.66667V3.761L21.5 17.0943L0 3.761ZM22.2122 19.7977C21.9986 19.93 21.7518 20.0001 21.5 20.0001C21.2482 20.0001 21.0014 19.93 20.7878 19.7977L0 6.90567V29.3333C0 30.0406 0.283147 30.7189 0.787151 31.219C1.29115 31.719 1.97473 32 2.6875 32H40.3125C41.0253 32 41.7088 31.719 42.2128 31.219C42.7169 30.7189 43 30.0406 43 29.3333V6.90567L22.2122 19.7977Z" fill="white"/>
</svg>
