<svg width="119" height="110" viewBox="0 0 119 110" fill="none" xmlns="http://www.w3.org/2000/svg">
<ellipse cx="59.5" cy="55" rx="59.5" ry="55" fill="#E07B39"/>
<g filter="url(#filter0_d_193_152)">
<path d="M62.8757 79.3181L59.5716 82.2071C59.333 82.4158 58.9811 82.4579 58.7102 82.3104L35.2254 69.5132L17.7916 59.1703L7.93311 74.968L58.8048 102.141C58.9993 102.245 59.2267 102.288 59.4549 102.264L71.3614 101.014L74.824 100.618C79.9519 100.031 84.9686 98.6118 89.6432 96.425L91.7149 95.4556C95.1346 93.4825 97.9612 90.7143 99.8987 87.4412L100.347 86.6839L101.226 84.8684C102.729 81.7638 103.664 78.468 103.993 75.1218C104.377 71.1996 103.92 67.2806 102.649 63.5932L101.476 60.1934C98.6361 53.2621 93.2059 47.5963 86.1423 44.1943L80.78 41.6113L85.1638 50.182C86.6471 53.0818 87.4107 56.2785 87.3999 59.5451L87.3943 61.2933C87.3907 62.4141 87.2016 63.5354 86.8342 64.6181C85.5487 68.4046 82.2125 71.3552 78.0854 72.3558L74.8622 73.1372C70.4029 74.2184 66.2718 76.3485 62.8757 79.3181Z" fill="#4A7F4F"/>
<path d="M62.8757 79.3181L59.5716 82.2071C59.333 82.4158 58.9811 82.4579 58.7102 82.3104L35.2254 69.5132L17.7916 59.1703L7.93311 74.968L58.8048 102.141C58.9993 102.245 59.2267 102.288 59.4549 102.264L71.3614 101.014L74.824 100.618C79.9519 100.031 84.9686 98.6118 89.6432 96.425L91.7149 95.4556C95.1346 93.4825 97.9612 90.7143 99.8987 87.4412L100.347 86.6839L101.226 84.8684C102.729 81.7638 103.664 78.468 103.993 75.1218C104.377 71.1996 103.92 67.2806 102.649 63.5932L101.476 60.1934C98.6361 53.2621 93.2059 47.5963 86.1423 44.1943L80.78 41.6113L85.1638 50.182C86.6471 53.0818 87.4107 56.2785 87.3999 59.5451L87.3943 61.2933C87.3907 62.4141 87.2016 63.5354 86.8342 64.6181C85.5487 68.4046 82.2125 71.3552 78.0854 72.3558L74.8622 73.1372C70.4029 74.2184 66.2718 76.3485 62.8757 79.3181Z" fill="#71BA78"/>
<path d="M76.7359 72.4959L73.7738 73.2686C68.6502 74.6049 64.0031 77.314 60.426 81.0499C55.4839 86.2114 54.3198 93.5226 57.4938 99.4673L58.8044 101.922C58.9044 102.109 59.1219 102.214 59.3503 102.185L68.5838 101.023L76.0809 99.9718C78.8243 99.5872 81.5339 98.9633 84.1736 98.1085L88.1587 96.8178L88.3157 96.7637C92.9268 95.1717 96.8021 92.0509 99.1719 88.0211L99.893 86.7962C102.42 82.5029 103.757 77.7308 103.777 72.9295C103.79 70.0654 103.333 67.2356 102.424 64.5374L100.849 59.8656C98.1095 53.1324 92.881 47.6066 86.0663 44.2425L81.1087 41.7954L84.7427 50.5916C85.8918 53.3737 86.4331 56.3629 86.3357 59.3901L86.2761 61.2428C86.237 62.4549 85.9926 63.6622 85.5514 64.8202C84.1335 68.5433 80.8166 71.4315 76.7359 72.4959Z" fill="#4D8F5F"/>
<path d="M57.4068 42.4981L68.4173 43.7175C82.3953 45.2656 91.6529 31.3277 83.238 21.4038L82.6808 20.7468C74.9729 11.6562 61.9026 7.39131 49.306 9.85634L44.5748 11.3412C16.3456 20.2007 11.3819 53.4362 35.8597 68.6348C48.6998 76.6073 65.9799 76.5216 78.6601 68.3538L81.9625 65.5884C84.7699 63.2375 85.875 59.72 84.8376 56.4374L84.3265 54.8199C81.7482 46.6608 68.7631 46.221 65.4767 54.1815C62.4845 61.4299 51.0112 61.8957 47.2201 54.9415C43.8263 48.7155 49.6089 41.6343 57.4068 42.4981Z" fill="white"/>
<path d="M89.5705 53.1978L90.3206 54.2388C102.526 71.1761 87.7373 93.1288 64.9579 91.8881C84.4806 87.8384 95.9617 69.8971 89.5705 53.1978Z" fill="#E6FFEC"/>
<path d="M56.4144 30.0027L59.0786 31.4565C61.1436 32.5835 63.453 33.249 65.8099 33.3961L66.374 33.4314C70.3376 33.6789 73.8915 31.5254 75.123 28.1303C75.1536 28.0461 75.1199 27.951 75.0398 27.8954L70.9168 25.0324L68.5103 23.4028C66.6445 22.1394 64.6811 21.0058 62.638 20.0121L61.5877 19.5013L61.2693 19.3525C58.9694 18.2774 56.3924 17.8734 53.8995 18.1969L52.526 18.3747C50.3101 18.6615 48.2406 19.4758 46.5212 20.7375C45.323 21.6166 44.3195 22.6952 43.5591 23.9206L42.5574 25.535C41.1047 28.3304 41.0093 31.6054 42.2941 34.5825L43.5026 37.383L45.3001 33.8667C45.9665 32.5628 46.9657 31.4346 48.2168 30.5728L48.6354 30.2845C49.2441 29.8653 49.9294 29.545 50.6631 29.3365C52.5583 28.7984 54.6521 29.0409 56.4144 30.0027Z" fill="#71BA78"/>
<path d="M68.9396 29.2051L69.3174 29.5606C63.7594 22.7343 52.6277 22.1804 45.6521 28.3833L45.1808 28.8025C52.2284 23.1448 62.6907 23.3222 68.9396 29.2051Z" fill="white"/>
<path d="M62.8757 79.3181L59.5716 82.2071C59.333 82.4158 58.9811 82.4579 58.7102 82.3104L35.2254 69.5132L17.7916 59.1703L7.93311 74.968L58.8048 102.141C58.9993 102.245 59.2266 102.288 59.4549 102.264L71.3614 101.014L74.824 100.618C79.9519 100.031 84.9686 98.6118 89.6432 96.425L91.7149 95.4556C95.1346 93.4825 97.9612 90.7143 99.8987 87.4412L100.347 86.6839L101.226 84.8684C102.729 81.7638 103.664 78.468 103.993 75.1218C104.377 71.1996 103.92 67.2806 102.649 63.5932L101.476 60.1934C98.6361 53.2621 93.2059 47.5963 86.1423 44.1943L80.78 41.6113L85.1638 50.182C86.6471 53.0818 87.4107 56.2785 87.3999 59.5451L87.3943 61.2933C87.3907 62.4141 87.2016 63.5354 86.8342 64.6181C85.5487 68.4046 82.2125 71.3552 78.0854 72.3558L74.8622 73.1372C70.4029 74.2184 66.2718 76.3485 62.8757 79.3181Z" stroke="white" stroke-opacity="0.31"/>
<path d="M76.7359 72.4959L73.7738 73.2686C68.6502 74.6049 64.0031 77.314 60.426 81.0499C55.4839 86.2114 54.3198 93.5226 57.4938 99.4673L58.8044 101.922C58.9044 102.109 59.1219 102.214 59.3503 102.185L68.5838 101.023L76.0809 99.9718C78.8243 99.5872 81.5339 98.9633 84.1736 98.1085L88.1587 96.8178L88.3157 96.7637C92.9268 95.1717 96.8021 92.0509 99.1719 88.0211L99.893 86.7962C102.42 82.5029 103.757 77.7308 103.777 72.9295C103.79 70.0654 103.333 67.2356 102.424 64.5374L100.849 59.8656C98.1095 53.1324 92.881 47.6066 86.0663 44.2425L81.1087 41.7954L84.7427 50.5916C85.8918 53.3737 86.4331 56.3629 86.3357 59.3901L86.2761 61.2428C86.237 62.4549 85.9926 63.6622 85.5514 64.8202C84.1335 68.5433 80.8166 71.4315 76.7359 72.4959Z" stroke="white" stroke-opacity="0.31"/>
<path d="M57.4068 42.4981L68.4173 43.7175C82.3953 45.2656 91.6529 31.3277 83.238 21.4038L82.6808 20.7468C74.9729 11.6562 61.9026 7.39131 49.306 9.85634L44.5748 11.3412C16.3456 20.2007 11.3819 53.4362 35.8597 68.6348C48.6998 76.6073 65.9799 76.5216 78.6601 68.3538L81.9625 65.5884C84.7699 63.2375 85.875 59.72 84.8376 56.4374L84.3265 54.8199C81.7482 46.6608 68.7631 46.221 65.4767 54.1815C62.4845 61.4299 51.0112 61.8957 47.2201 54.9415C43.8263 48.7155 49.6089 41.6343 57.4068 42.4981Z" stroke="white" stroke-opacity="0.31"/>
<path d="M89.5705 53.1978L90.3206 54.2388C102.526 71.1761 87.7373 93.1288 64.9579 91.8881C84.4806 87.8384 95.9617 69.8971 89.5705 53.1978Z" stroke="white" stroke-opacity="0.31"/>
<path d="M56.4144 30.0027L59.0786 31.4565C61.1436 32.5835 63.453 33.249 65.8099 33.3961L66.374 33.4314C70.3376 33.6789 73.8915 31.5254 75.123 28.1303C75.1536 28.0461 75.1199 27.951 75.0398 27.8954L70.9168 25.0324L68.5103 23.4028C66.6445 22.1394 64.6811 21.0058 62.638 20.0121L61.5877 19.5013L61.2693 19.3525C58.9694 18.2774 56.3924 17.8734 53.8995 18.1969L52.526 18.3747C50.3101 18.6615 48.2406 19.4758 46.5212 20.7375C45.323 21.6166 44.3195 22.6952 43.5591 23.9206L42.5574 25.535C41.1047 28.3304 41.0093 31.6054 42.2941 34.5825L43.5026 37.383L45.3001 33.8667C45.9665 32.5628 46.9657 31.4346 48.2168 30.5728L48.6354 30.2845C49.2441 29.8653 49.9294 29.545 50.6631 29.3365C52.5583 28.7984 54.6521 29.0409 56.4144 30.0027Z" stroke="white" stroke-opacity="0.31"/>
<path d="M68.9396 29.2051L69.3174 29.5606C63.7594 22.7343 52.6277 22.1804 45.6521 28.3833L45.1808 28.8025C52.2284 23.1448 62.6907 23.3222 68.9396 29.2051Z" stroke="white" stroke-opacity="0.31"/>
</g>
<defs>
<filter id="filter0_d_193_152" x="4.32571" y="5.76699" width="103.199" height="99.903" filterUnits="userSpaceOnUse" color-interpolation-filters="sRGB">
<feFlood flood-opacity="0" result="BackgroundImageFix"/>
<feColorMatrix in="SourceAlpha" type="matrix" values="0 0 0 0 0 0 0 0 0 0 0 0 0 0 0 0 0 0 127 0" result="hardAlpha"/>
<feOffset/>
<feGaussianBlur stdDeviation="1.45"/>
<feComposite in2="hardAlpha" operator="out"/>
<feColorMatrix type="matrix" values="0 0 0 0 0.479236 0 0 0 0 0.858333 0 0 0 0 0.580328 0 0 0 0.67 0"/>
<feBlend mode="normal" in2="BackgroundImageFix" result="effect1_dropShadow_193_152"/>
<feBlend mode="normal" in="SourceGraphic" in2="effect1_dropShadow_193_152" result="shape"/>
</filter>
</defs>
</svg>
