<svg width="44" height="36" viewBox="0 0 44 36" fill="none" xmlns="http://www.w3.org/2000/svg">
<g clip-path="url(#clip0_196_202)">
<path d="M21.0265 0.32807C21.1542 0.223302 21.306 0.140181 21.473 0.0834664C21.6401 0.0267519 21.8191 -0.00244141 22 -0.00244141C22.1809 -0.00244141 22.3599 0.0267519 22.527 0.0834664C22.694 0.140181 22.8458 0.223302 22.9735 0.32807L31.2235 7.07807C31.3515 7.18257 31.4531 7.30672 31.5225 7.44339C31.5918 7.58007 31.6275 7.72659 31.6275 7.87457C31.6275 8.02255 31.5918 8.16907 31.5225 8.30575C31.4531 8.44242 31.3515 8.56657 31.2235 8.67107L28.4735 10.9211C28.3458 11.0258 28.194 11.109 28.027 11.1657C27.8599 11.2224 27.6809 11.2516 27.5 11.2516C27.3191 11.2516 27.1401 11.2224 26.973 11.1657C26.806 11.109 26.6542 11.0258 26.5265 10.9211L24.75 9.46532V26.9996H41.25C41.9793 26.9996 42.6788 27.2366 43.1945 27.6586C43.7103 28.0805 44 28.6528 44 29.2496V33.7496C44 34.3463 43.7103 34.9186 43.1945 35.3406C42.6788 35.7625 41.9793 35.9996 41.25 35.9996H2.75C2.02065 35.9996 1.32118 35.7625 0.805458 35.3406C0.28973 34.9186 0 34.3463 0 33.7496V29.2496C0 28.6528 0.28973 28.0805 0.805458 27.6586C1.32118 27.2366 2.02065 26.9996 2.75 26.9996H19.25V9.46532L17.4735 10.9211C17.3458 11.0258 17.194 11.109 17.027 11.1657C16.8599 11.2224 16.6809 11.2516 16.5 11.2516C16.3191 11.2516 16.1401 11.2224 15.973 11.1657C15.806 11.109 15.6542 11.0258 15.5265 10.9211L12.7765 8.67107C12.6485 8.56657 12.5469 8.44242 12.4775 8.30575C12.4082 8.16907 12.3725 8.02255 12.3725 7.87457C12.3725 7.72659 12.4082 7.58007 12.4775 7.44339C12.5469 7.30672 12.6485 7.18257 12.7765 7.07807L21.0265 0.32807Z" fill="#5E5E5E" fill-opacity="0.57"/>
<path d="M41.25 15.75C41.9793 15.75 42.6788 15.9871 43.1945 16.409C43.7103 16.831 44 17.4033 44 18V22.5C44 23.0967 43.7103 23.669 43.1945 24.091C42.6788 24.5129 41.9793 24.75 41.25 24.75H28.875C28.5103 24.75 28.1606 24.6315 27.9027 24.4205C27.6449 24.2095 27.5 23.9234 27.5 23.625C27.5 23.3266 27.6449 23.0405 27.9027 22.8295C28.1606 22.6185 28.5103 22.5 28.875 22.5H41.25V18H28.875C28.5103 18 28.1606 17.8815 27.9027 17.6705C27.6449 17.4595 27.5 17.1734 27.5 16.875C27.5 16.5766 27.6449 16.2905 27.9027 16.0795C28.1606 15.8685 28.5103 15.75 28.875 15.75H41.25ZM15.125 15.75C15.4897 15.75 15.8394 15.8685 16.0973 16.0795C16.3551 16.2905 16.5 16.5766 16.5 16.875C16.5 17.1734 16.3551 17.4595 16.0973 17.6705C15.8394 17.8815 15.4897 18 15.125 18H2.75V22.5H15.125C15.4897 22.5 15.8394 22.6185 16.0973 22.8295C16.3551 23.0405 16.5 23.3266 16.5 23.625C16.5 23.9234 16.3551 24.2095 16.0973 24.4205C15.8394 24.6315 15.4897 24.75 15.125 24.75H2.75C2.02065 24.75 1.32118 24.5129 0.805458 24.091C0.28973 23.669 0 23.0967 0 22.5V18C0 17.4033 0.28973 16.831 0.805458 16.409C1.32118 15.9871 2.02065 15.75 2.75 15.75H15.125Z" fill="#5E5E5E" fill-opacity="0.57"/>
</g>
<defs>
<clipPath id="clip0_196_202">
<rect width="44" height="36" fill="white" transform="matrix(-1 0 0 1 44 0)"/>
</clipPath>
</defs>
</svg>
